<svg xmlns="http://www.w3.org/2000/svg" width="682.667" height="682.667" version="1.0" viewBox="0 0 512 512"><path fill="#3B82F6" d="M219.6 49.1c-2.5 2.9-2.6 3.7-2.6 14V74h-78.5v19h50.7l-7.3 7.7c-12.9 13.8-21.9 29.8-27 47.8-2.1 7.5-2.3 10.4-2.8 49l-.6 41-9.5.2c-12.3.4-13.7.7-15.5 4.3-1.2 2.4-1.5 8.2-1.5 34.8v31.9l2.5 2.7 2.4 2.6h66l2.8-2.4 2.8-2.4v-66l-2.4-2.6c-2.3-2.4-2.9-2.6-15.5-2.8l-13.1-.3.1-39.5v-39.5l2.7-8.8c4.9-15.8 12.5-28.5 23.4-38.9 5.6-5.3 17.6-13.8 19.5-13.8.4 0 .8 4 .8 8.9 0 8.2.2 9.2 2.6 12l2.6 3.1h66.6l2.6-3.1c2.4-2.8 2.6-3.8 2.6-12 0-4.9.4-8.9.9-8.9s4.2 2.2 8.3 4.9c17.1 11.4 29.7 29.5 35.4 50.6 1.7 6.3 1.9 10.9 1.9 46v39l-13.2.5c-19.4.7-17.8-2.7-17.8 38.1v33.1l2.8 2.4 2.8 2.4h66l2.4-2.5 2.5-2.4v-32.9c0-40.6 1.2-37.5-15.2-38.2l-11.3-.5-.6-41c-.4-26.7-1-42.6-1.8-45.5-5.7-21.8-13.7-36.3-27.9-51.2l-7.5-7.8h49.8v-9.5l.1-9.5H294V63.4c0-10.5-.8-13.7-3.9-16.1-1.2-.9-10.3-1.2-34.8-1.3h-33.1zM276 84v20h-41V64h41zm-92.5 193v19.5l-20.2.3-20.3.2v-40l20.3.2 20.2.3zm184.5 0v20h-40v-40h40z"/></svg>