<svg xmlns="http://www.w3.org/2000/svg" width="40" height="40" viewBox="0 0 1024 1024"><path fill="#10B981" d="M650.7 135c-5.3 1.4-13 5.4-17.2 9.1-2 1.8-7.5 8.6-12.2 15.3-4.8 6.6-20.5 28.3-34.9 48.1-14.3 19.8-40.9 56.8-59.1 82.1-18.2 25.4-36.6 51-41 57s-18.2 25.3-30.8 42.9-32.7 45.6-44.7 62.2-22.2 31.2-22.8 32.5c-1.1 2.6-4.2 18.1-17 84-4.9 25.7-9 48.1-9 49.8 0 6.9 7 14.4 14.4 15.5 3.8.6 5.6.2 11.3-2.5 6.1-2.8 94.5-50.6 108.3-58.5 4.7-2.6 6.9-5.2 15.4-17.1 5.5-7.6 23.5-32.8 40.1-55.9s36.7-51.2 44.6-62.5c8-11.3 24.4-34.2 36.4-51 80.3-111.9 113-158 114.7-161.8 1.1-2.4 2.4-7 3-10.2 2-10.8-2.2-25.6-9.7-33.9-4.5-5-53.6-39.3-61.3-42.9-4.7-2.1-7.4-2.7-15.2-2.9-5.2-.1-11.2.2-13.3.7m5.3 98.4c20.5 14.2 29.8 21.2 29.2 22-.5.6-4.4 5.8-8.7 11.6-4.2 5.8-8.1 10.9-8.5 11.4-.5.5-5.5-2.5-11.2-6.6S638 258.3 627.5 251c-10.4-7.3-19.4-13.6-19.9-14-.9-.9 16.2-25.2 17.5-24.8.5.2 14.4 9.7 30.9 21.2M439.8 530.9c13 9.3 24.8 17.7 26 18.8l2.4 1.9-25.9 13.3c-14.2 7.4-29.6 15.4-34.2 17.9-6.8 3.7-8.2 4.1-7.7 2.6.5-1.6 7.5-35.6 13.7-66.2.6-2.8 1.3-5.2 1.5-5.2.3 0 11.1 7.6 24.2 16.9"/><path fill="#E0F2FE" d="M363 241c-171.7.5-158.4.1-169.8 5.9-6.9 3.5-16.8 13.6-20.2 20.5-6.5 13.3-6-6.6-6 266.3 0 177.3.3 249.7 1.1 253.5 3 14.2 13.6 28.1 26.3 34.3 14.1 7-10 6.5 317.6 6.5 187.8 0 298.7-.4 302.5-1 18.8-3 34.3-15.5 40.8-32.7l2.2-5.8.3-251.5c.1-178.1-.1-253-.9-256.8-2.7-13.2-12.9-26.7-25-33.1-10-5.4-14.5-6.3-35-6.7-18.2-.4-18.6-.3-20.6 1.9-2.4 2.7-22.3 30.5-22.3 31.2 0 .3 12.5.5 27.8.6 32.6.1 35.2.6 40.1 9 2 3.4 2.1 4.9 2.1 42.4l.1 39-66.8.5c-63.3.5-67 .6-69.8 2.4-4.1 2.5-5.1 3.9-26.3 34.5-34.4 49.6-44.9 64.5-60.6 87-8.7 12.3-16.6 24-17.7 26-2.4 4.5-2.5 13.4-.1 17.8.9 1.7 13 16 26.7 31.8 13.8 15.8 25 29.2 25 29.8 0 1.7-105.7 106.7-107.4 106.7-.7 0-25-8.1-54-18.1-46.4-16-53.1-18-57.1-17.5-2.5.3-26.5 7.7-53.3 16.6l-48.8 16.1-4.5-2.6c-2.4-1.4-4.4-2.7-4.4-2.9s5.5-11.5 12.2-25.2c11.2-22.9 12.2-25.3 12.1-30.4 0-4.1-3.2-15.4-12.7-45.5-6.9-22-12.6-40.5-12.6-41.2 0-.6 4.5-5.3 10.1-10.4 5.5-5.2 11-10.6 12-12.1 1.6-2.2 3.3-11.5 8.4-47.5 3.5-24.7 7.3-52 8.5-60.8 1.1-8.8 2.3-17.2 2.6-18.7l.6-2.8 31.1-.2 31.1-.3 11.3-15.5c6.2-8.5 11.2-15.8 11.3-16.3 0-.4-18.7-.7-41.5-.7H348v-91l75.7-.2 75.6-.3 11.9-16.3c6.5-9 11.8-16.5 11.8-16.7 0-.3-.6-.4-1.2-.3-.7.2-72.2.5-158.8.8m-49 78.5V365H201v-39.3c0-37.9.1-39.3 2.1-42.6 2.6-4.3 5.6-6.8 9.4-8 1.7-.5 25.2-1 52.3-1l49.2-.1zm-2 80.1c0 .8-1.3 11.1-3 22.7-3.8 27.4-12 87.2-12 87.9 0 .3-5.6 5.6-12.4 11.7-14.2 12.8-17.1 17.2-16.4 24.9.3 2.6 6.4 23.2 13.6 45.9 7.3 22.6 13.2 42 13.2 43.1s-6.1 14.2-13.5 29.2c-14.7 29.6-15.3 31.6-11.6 39.5 2.5 5.5 4.5 7.1 21 16.9 15.1 9 18.4 10.2 25.9 9.3 2.6-.3 26.3-7.8 52.7-16.6l48.1-16.1 23.4 8.3 23.5 8.2.3 39.8.2 39.7H214.3l-4.3-2.3c-3-1.6-5.1-3.7-6.7-6.7l-2.3-4.3V398h55.5c49.7 0 55.5.2 55.5 1.6M824 488v90l-79.7-.1h-79.8L654 565.8c-27.1-31-35.2-40.4-35.7-41.5-.2-.7 8-13.5 18.4-28.5s28.8-41.7 40.8-59.3 22.9-33.5 24.2-35.3l2.4-3.2H824zm0 209.3v85.4l-2.9 4c-5.7 7.9 7.8 7.3-167.1 7.3H498v-33.5c0-18.4.4-33.5.8-33.5s6.8 2.1 14.2 4.6c14.7 4.9 21.6 5.7 27 2.9 1.6-.8 30.3-28.8 63.7-62l60.8-60.5H824z"/><path fill="#3B82F6" d="M363 241c-171.7.5-158.4.1-169.8 5.9-6.9 3.5-16.8 13.6-20.2 20.5-6.5 13.3-6-6.6-6 266.3 0 177.3.3 249.7 1.1 253.5 3 14.2 13.6 28.1 26.3 34.3 14.1 7-10 6.5 317.6 6.5 187.8 0 298.7-.4 302.5-1 18.8-3 34.3-15.5 40.8-32.7l2.2-5.8.3-251.5c.1-178.1-.1-253-.9-256.8-2.7-13.2-12.9-26.7-25-33.1-10-5.4-14.5-6.3-35-6.7-18.2-.4-18.6-.3-20.6 1.9-2.4 2.7-22.3 30.5-22.3 31.2 0 .3 12.5.5 27.8.6 32.6.1 35.2.6 40.1 9 2 3.4 2.1 4.9 2.1 42.4l.1 39-66.8.5c-63.3.5-67 .6-69.8 2.4-4.1 2.5-5.1 3.9-26.3 34.5-34.4 49.6-44.9 64.5-60.6 87-8.7 12.3-16.6 24-17.7 26-2.4 4.5-2.5 13.4-.1 17.8.9 1.7 13 16 26.7 31.8 13.8 15.8 25 29.2 25 29.8 0 1.7-105.7 106.7-107.4 106.7-.7 0-25-8.1-54-18.1-46.4-16-53.1-18-57.1-17.5-2.5.3-26.5 7.7-53.3 16.6l-48.8 16.1-4.5-2.6c-2.4-1.4-4.4-2.7-4.4-2.9s5.5-11.5 12.2-25.2c11.2-22.9 12.2-25.3 12.1-30.4 0-4.1-3.2-15.4-12.7-45.5-6.9-22-12.6-40.5-12.6-41.2 0-.6 4.5-5.3 10.1-10.4 5.5-5.2 11-10.6 12-12.1 1.6-2.2 3.3-11.5 8.4-47.5 3.5-24.7 7.3-52 8.5-60.8 1.1-8.8 2.3-17.2 2.6-18.7l.6-2.8 31.1-.2 31.1-.3 11.3-15.5c6.2-8.5 11.2-15.8 11.3-16.3 0-.4-18.7-.7-41.5-.7H348v-91l75.7-.2 75.6-.3 11.9-16.3c6.5-9 11.8-16.5 11.8-16.7 0-.3-.6-.4-1.2-.3-.7.2-72.2.5-158.8.8m-49 78.5V365H201v-39.3c0-37.9.1-39.3 2.1-42.6 2.6-4.3 5.6-6.8 9.4-8 1.7-.5 25.2-1 52.3-1l49.2-.1zm-2 80.1c0 .8-1.3 11.1-3 22.7-3.8 27.4-12 87.2-12 87.9 0 .3-5.6 5.6-12.4 11.7-14.2 12.8-17.1 17.2-16.4 24.9.3 2.6 6.4 23.2 13.6 45.9 7.3 22.6 13.2 42 13.2 43.1s-6.1 14.2-13.5 29.2c-14.7 29.6-15.3 31.6-11.6 39.5 2.5 5.5 4.5 7.1 21 16.9 15.1 9 18.4 10.2 25.9 9.3 2.6-.3 26.3-7.8 52.7-16.6l48.1-16.1 23.4 8.3 23.5 8.2.3 39.8.2 39.7H214.3l-4.3-2.3c-3-1.6-5.1-3.7-6.7-6.7l-2.3-4.3V398h55.5c49.7 0 55.5.2 55.5 1.6M824 488v90l-79.7-.1h-79.8L654 565.8c-27.1-31-35.2-40.4-35.7-41.5-.2-.7 8-13.5 18.4-28.5s28.8-41.7 40.8-59.3 22.9-33.5 24.2-35.3l2.4-3.2H824zm0 209.3v85.4l-2.9 4c-5.7 7.9 7.8 7.3-167.1 7.3H498v-33.5c0-18.4.4-33.5.8-33.5s6.8 2.1 14.2 4.6c14.7 4.9 21.6 5.7 27 2.9 1.6-.8 30.3-28.8 63.7-62l60.8-60.5H824z"/></svg>