<svg xmlns="http://www.w3.org/2000/svg" width="1365.333" height="1365.333" version="1.0" viewBox="0 0 1024 1024"><g fill="#3B82F6"><path d="M180.3 62.1C128.7 69.6 83.9 107 68 156c-7.1 22.1-6.5-10.4-6.5 357 0 272.7.2 331.5 1.3 336 7.3 29.7 18.9 51.4 38 70.9 20.6 21 44.4 34 73.5 40.3l10.2 2.2 318 .1c174.9.1 323.2-.1 329.5-.6 20-1.3 35-5.4 52.3-14 15-7.5 23.9-14 36.8-26.8 20.1-20.2 29.8-37.4 38.2-67.8l2.1-7.8.4-326.5c.2-219.8 0-329.5-.7-335.5-2.8-24.6-12-47.5-27-67-7.4-9.7-24-25.6-33.4-31.8-15.9-10.7-36.1-18.6-56.6-22.1-8.6-1.4-39.6-1.6-333.5-1.5-181.9.1-326.8.5-330.3 1m71.4 22.1c1.6 2.9 8.1 14.3 14.5 25.3 6.3 11 17.5 30.3 24.8 43 16.1 27.9 17 29.2 21.5 30.1 3.9.7 2.9 1.2 41-20.8 27.9-16.1 76.9-44.3 96-55.2 8.8-5.1 23-13.4 31.6-18.4l15.5-9.2 86 .2 85.9.3-12.5 7.3c-6.9 4.1-24.6 14.4-39.5 22.9-34.8 20-75.7 43.6-96 55.3-8.8 5.1-20 11.6-25 14.5-4.9 2.8-18.9 10.9-31 17.9-43.8 25.4-62.3 36.1-81 46.6-25.4 14.4-29 17.9-25.2 25 2.6 4.8 18.1 31.6 37.2 64.5 10.6 18.1 28 48.3 38.7 67 44.9 78.1 41 71.9 45.8 73 3.5.8 3.9.6 35-17.4 23-13.3 27-15.3 27-13.2 0 .4 5.2 9.5 11.6 20.2s12.7 21.6 14 24.2c3.5 6.9 5.7 8.7 10.3 8.7 4.7 0 6.8-2.2 13.1-13.7 2.4-4.3 14.3-24.5 26.5-44.8 12.1-20.4 25-42.1 28.6-48.4 3.5-6.2 7.5-12.2 8.9-13.3s14.2-8.6 28.5-16.7c25.4-14.5 47.9-27.5 66-38.1 10-5.9 33.4-19.4 77.5-44.7 16.2-9.4 39.9-23 52.5-30.3 12.7-7.3 32.2-18.6 43.5-25.2l20.5-11.8.3 49.7c.2 39.5 0 50-1 50.6-.7.4-10.7 6.2-22.3 12.8-11.5 6.6-26.8 15.5-34 19.7-7.1 4.2-15.9 9.2-19.5 11.2s-21.1 12.1-39 22.5-51.6 29.8-75 43.3c-59.2 34-71.3 41-114 65.8-20.6 11.9-53.7 31-73.5 42.4-38.1 21.9-41.2 24.2-39.9 29.9.4 1.4 5.7 11.4 11.9 22.1s15 26 19.5 34c9.9 17.3 54.5 94.5 72.5 125.5 7 12.1 13.4 22.8 14.3 23.7 1 1.2 3 1.8 6.1 1.8 4.1 0 7.2-1.5 28.1-13.6 12.9-7.5 51.2-29.6 85-49.2 105.1-60.7 110.5-63.8 136.5-79 23.8-13.9 42.3-24.2 43.4-24.2.8 0 1.1 12.5.9 49.1l-.3 49.1-29.5 17.2c-35.6 20.8-68.7 40-95 55.1-10.7 6.2-38.8 22.4-62.5 36-23.6 13.7-45.9 26.5-49.5 28.5-8.4 4.7-58 33.3-88 50.8-8 4.6-34.8 20-59.6 34.3L514.3 944h-85.1c-46.9 0-85.2-.3-85.2-.8 0-.4 6-4 13.3-8.1s26.9-15.3 43.7-25.1c16.8-9.7 38.6-22.3 48.5-28s27.5-15.8 39-22.5c11.6-6.7 29.1-16.9 39-22.7 9.9-5.7 22-12.6 26.8-15.3 16.7-9.3 17.1-11 6.5-29-5.1-8.5-35.5-61.1-59.3-102.5-6.1-10.7-14.6-25.4-18.7-32.5-4.1-7.2-12.8-22.2-19.3-33.5-6.4-11.3-12.8-21.5-14.2-22.8-2.9-2.6-7.1-2.8-11.6-.6-1.8.9-9.9 5.6-18.2 10.4-18.6 10.9-62 36-108 62.5-19.2 11.1-55 31.8-79.5 46s-58.7 34-76 44-41 23.6-52.6 30.3-21.9 12.4-22.8 12.8c-1.5.6-1.6-3.2-1.4-49.1l.3-49.7 31-18c49.5-28.6 62.9-36.4 100-57.9 19.3-11.1 44-25.5 55-31.9s27-15.6 35.5-20.5c47.9-27.2 94.8-55 96.9-57.3 3.4-3.7 2.4-7.9-4.6-19.7-3.3-5.5-12.7-21.7-21-36-45.2-78.6-54-93.7-58.3-101-2.6-4.4-8.4-14.5-13-22.5s-10.7-18.6-13.6-23.6c-5.3-9-7.9-11.4-12.6-11.4-2 0-11.8 5-23.3 12-6.3 3.9-21.7 12.8-49 28.5-8.8 5.1-20.5 11.8-26 15-26.5 15.4-36.3 21-65.2 37.6C94.2 411 79.9 419 79.6 419c-.4 0-.5-22.3-.4-49.6l.3-49.7 26-14.9c14.3-8.2 36.8-21.2 50-28.8 59.5-34.2 73.1-42.3 74.8-44.2 3.8-4.5 2.7-7.1-17.1-41-10.4-17.8-26.6-45.8-36.2-62.3-9.5-16.5-18.6-31.9-20.2-34.3-1.6-2.3-2.7-4.6-2.3-5.1.8-1.3 17.9-6.9 26.1-8.5 4.9-1 16-1.4 37.6-1.5l30.6-.1zm204.9-4.3c-.6.9-13.5 8.6-31.6 18.8-5.8 3.3-19.7 11.3-31 17.8s-27.9 16-37 21.3c-9.1 5.2-21.3 12.3-27.1 15.8-5.9 3.5-11.1 6.4-11.6 6.4-.9 0-6-8.4-23.2-38.3-3.1-5.3-9.8-16.8-14.8-25.5-5.1-8.6-9.3-16-9.3-16.5 0-.4 41.9-.7 93.1-.7 53.8 0 92.8.4 92.5.9m384 .6c30.8 5.4 54.5 18.9 74.6 42.6 13.9 16.2 24.6 39.7 27.2 59.9l.6 4.5-23.3 13.3c-12.7 7.2-30.4 17.4-39.2 22.5s-21.8 12.7-29 16.9c-7.1 4.1-33.2 19.1-58 33.3-43.9 25.1-58.6 33.6-102.3 59.3-11.7 6.8-21.5 12.2-21.8 11.9s1.5-6.1 3.9-12.8c6.1-16.9 7.1-22.3 7.1-37.4 0-17.1-2.9-29.3-10.6-45-19.3-39-63.8-61.8-107.5-55.1-62.1 9.5-101.3 71.1-82.6 130.1 6.5 20.8 20.1 48.2 41.9 85.1 4.6 7.8 8.4 14.6 8.4 15.1s-4.6 3.6-10.2 6.8c-5.7 3.3-15.4 9-21.7 12.7-6.3 3.8-11.8 6.7-12.3 6.6-.4-.2-6.1-9.5-12.6-20.8-43.2-75-51.7-89.7-57.4-99.5-26.1-44.6-31.3-53.4-34-57.3-1.6-2.4-2.8-4.5-2.6-4.7.1-.1 8.6-5 18.8-10.8s25.3-14.4 33.5-19.2c24.8-14.4 101.3-58.4 112-64.5 5.5-3.1 17-9.7 25.5-14.7 8.5-4.9 25.9-15 38.5-22.3 57.8-33.6 93.6-54.4 97-56.6 3.2-2.1 124.1-1.9 136.1.1m-696 29.2c3.7 6.5 10.7 18.5 15.4 26.8 4.8 8.2 9.8 17 11.2 19.5 2.6 4.8 33 57 36.7 63.1l2.1 3.6-11.2 6.5C163.1 249.6 92.2 290.5 86.6 294c-3.7 2.2-6.9 4-7.2 4s-.3-26-.1-57.8c.4-62.5.4-61.8 6.3-78.2 6-16.9 14.5-31.3 25-42.9 6.6-7.3 25.1-22.4 26.4-21.6.4.3 3.8 5.8 7.6 12.2m451.9 103.9c31.7 6.7 57.8 33.7 64.1 66.2 5.9 31-3.9 55.5-60.3 149.2-23.1 38.5-21.6 36-22.8 36-.9-.1-11.7-17.8-36.4-59.4-10.6-17.9-26.3-46.3-31.5-57.1-12.2-25.1-17.3-43.4-16.1-57.5 1.8-21.3 9.2-38.3 23-52.9 20.9-22 49.7-30.8 80-24.5M283.8 350.7c11.7 20.7 12.9 22.7 49.2 85.3 36.9 63.6 38.5 66.3 41.3 70.5 1.5 2.2 2.7 4.7 2.7 5.5 0 .9-1.9 2.7-4.2 4-4.9 2.7-60.1 34.6-101.8 58.8-29.2 16.9-71.4 41.4-83 48.2-3.6 2.1-18 10.4-32 18.5-14 8.2-32.2 18.7-40.5 23.5-21.7 12.5-35 20-35.8 20-.4 0-.6-54.8-.5-121.7l.3-121.8 9.5-5.6c5.2-3 13.6-7.8 18.5-10.6 15.4-8.5 29.5-16.6 42.5-24.3 15.1-8.8 25.1-14.6 47.5-27.6 9.4-5.4 29.6-17.1 44.9-26.1 15.4-9 28.5-16.3 29.1-16.3s6.1 8.9 12.3 19.7M944 453.2l-.1 121.3-8.7 4.9c-4.8 2.7-17.7 10.2-28.7 16.6-18.5 10.8-44 25.6-72.5 42-6.3 3.7-19.1 11.1-28.5 16.5-9.3 5.4-28.5 16.4-42.5 24.5s-30 17.3-35.5 20.5-18.8 10.8-29.5 17-25 14.4-31.7 18.3l-12.2 7-2.4-3.7c-2.3-3.5-21-35.7-63.4-109.1-11.3-19.5-25-43-30.4-52.2-9.6-16.2-10.9-18.8-9.1-18.8.8 0 20.9-11.4 55.7-31.5 5-2.9 26.6-15.3 48-27.7 21.5-12.3 53.4-30.8 71-40.9 17.6-10.2 36.3-20.9 41.5-23.9s19.6-11.3 32-18.6c24.3-14.2 36.7-21.3 72.5-41.9 30.2-17.3 59.8-34.5 66-38.3 2.8-1.7 5.8-3.1 6.8-3.1 1.6-.1 1.7 6.3 1.7 121.1m-501 173c2.4 4.4 7.5 13.2 38.7 67.3 9.9 17 23.3 40.2 29.8 51.5s16.7 28.9 22.6 39.1c6 10.3 10.9 19.1 10.9 19.6 0 .9-2.3 2.3-59.5 35.3-19.2 11.1-49.2 28.4-66.5 38.5-17.3 10-48.1 27.8-68.5 39.5-20.3 11.7-38.8 22.5-41 23.9l-4 2.6-54 .3c-42.8.2-56.2 0-65-1.2-28.7-3.8-51.5-15.3-72.5-36.5-4.7-4.7-10.5-11.5-12.9-15-6-8.8-14.6-27.1-17.2-36.5-2.6-9.9-5-23.9-4.1-24.8.4-.4 9.3-5.6 19.7-11.6C132.7 799.1 152 788 171 777c54.4-31.5 92.2-53.3 110.3-63.7 11.1-6.4 35.7-20.6 54.7-31.6s42.8-24.8 53-30.7c22.9-13.2 41.4-24 46-26.8 1.9-1.2 4-2.2 4.6-2.2s2.1 1.9 3.4 4.2m500.7 152c-.3 52.1-.6 60.2-2.1 66.8-6 25.9-16.4 45.1-33.5 62.1-20.7 20.6-45.5 32.7-73.6 35.9-11.5 1.3-277.1 1.4-277.9.1-.4-.5 2.9-2.8 7.1-5.2 4.3-2.3 28.1-16 52.8-30.4 24.8-14.4 59.4-34.4 77-44.5 33.1-19 41.4-23.8 139.5-80.5 81.7-47.3 92.5-53.5 101-58.8 4.1-2.5 8.1-4.6 8.8-4.7 1.1 0 1.2 10.9.9 59.2"/><path d="M566.5 254.4c-12.5 3-23.3 11.5-28.9 22.6-11.6 23.2-3.6 50.2 18.2 61.8 7.3 3.9 13.7 5.3 23.2 5.3 39.6-.2 59.5-49.1 31.5-77.3-11.6-11.7-28-16.3-44-12.4m19.8 18.2c6.3 2.1 13 8.3 16.3 15 2.3 4.7 2.6 6.3 2.2 12.2-.6 8.3-3.2 13.6-9.4 19.1-10.5 9.3-25.8 9.3-35.4 0-12.2-11.9-12-29.7.5-40.7 7.6-6.7 16.8-8.7 25.8-5.6"/></g></svg>