<?xml version="1.0" encoding="UTF-8" standalone="no"?>
<svg
   viewBox="0 0 200 200"
   width="200"
   height="200"
   version="1.1"
   id="svg8"
   xmlns="http://www.w3.org/2000/svg"
   xmlns:svg="http://www.w3.org/2000/svg">
  <defs
     id="defs8" />
  <!-- Mapa minimalista -->
  <!-- Lupa en parte inferior derecha, con cabeza dentro del mapa -->
  <g
     id="g9"
     transform="matrix(1.8627451,0,0,1.8627451,-99.313726,-103.97059)">
    <g
       id="g5"><!-- Cuadrado del mapa redondeado -->
<rect
   x="60"
   y="60"
   width="80"
   height="80"
   fill="none"
   stroke="#3b82f6"
   stroke-width="3"
   rx="8"
   id="rect1" />
<!-- Mapa mundial SVG dentro del cuadrado -->
<clipPath
   id="mapClip">
  <rect
     x="60"
     y="60"
     width="80"
     height="80"
     rx="8"
     id="rect2" />
</clipPath>
<g
   clip-path="url(#mapClip)"
   id="g4">
  <svg
     x="63"
     y="63"
     width="74"
     height="74"
     viewBox="0 0 512 512"
     preserveAspectRatio="xMidYMid"
     version="1.1"
     id="svg3">
    <g
       transform="matrix(0.1,0,0,-0.1,0,512)"
       id="g3">
      <path
         d="M 2410,5110 C 1883,5080 1387,4889 960,4550 506,4189 171,3641 56,3070 -8,2753 -8,2367 56,2050 207,1299 713,634 1400,286 1776,95 2134,9 2555,9 c 105,0 233,5 285,11 582,67 1114,324 1525,735 309,308 539,700 653,1110 68,241 93,431 93,695 0,264 -25,454 -93,695 -114,410 -344,802 -653,1110 -519,519 -1219,785 -1955,745 z m 510,-335 c 440,-75 823,-261 1154,-560 136,-122 286,-302 286,-342 0,-21 -138,-16 -212,7 -111,35 -131,29 -223,-61 -97,-94 -199,-128 -272,-90 -78,39 -159,203 -182,364 -11,77 -22,99 -98,197 -52,66 -65,77 -113,93 -31,10 -101,21 -159,24 l -104,6 -69,64 c -38,34 -78,63 -89,63 -45,0 -79,-65 -79,-151 0,-36 2,-38 38,-44 106,-16 155,-32 251,-81 123,-63 237,-143 253,-180 14,-30 7,-38 -123,-138 -72,-55 -97,-81 -111,-114 l -18,-43 29,20 c 62,45 122,18 166,-74 22,-48 32,-58 81,-81 65,-30 85,-58 92,-123 6,-61 -20,-92 -119,-145 -95,-50 -107,-61 -120,-110 -15,-57 -134,-171 -331,-319 -176,-132 -165,-110 -119,-225 57,-143 -15,-175 -120,-53 l -44,51 h -121 c -67,0 -156,-3 -199,-7 l -78,-6 6,-73 c 4,-40 15,-96 24,-126 22,-64 46,-72 108,-34 90,55 118,68 141,62 28,-7 31,-31 9,-83 -19,-44 -19,-43 5,-43 32,0 87,-64 111,-131 20,-54 28,-64 63,-80 58,-26 83,-24 200,21 163,62 280,72 372,34 18,-7 77,-19 131,-25 138,-15 179,-37 310,-160 116,-110 180,-151 296,-189 89,-29 119,-55 119,-101 0,-48 -18,-81 -93,-170 -34,-41 -86,-110 -114,-154 -64,-98 -176,-206 -292,-282 -49,-31 -105,-68 -126,-81 -66,-44 -273,-305 -380,-479 -28,-47 -74,-105 -101,-128 -45,-40 -229,-143 -285,-160 l -24,-7 5,133 5,134 86,255 c 170,503 176,603 48,723 -26,24 -84,66 -130,92 -45,26 -98,62 -117,80 -30,29 -34,38 -34,84 0,62 16,103 72,185 l 41,60 -79,74 c -43,40 -97,84 -119,97 -22,13 -127,49 -232,79 -203,59 -294,94 -330,128 -12,11 -34,52 -49,90 -33,87 -60,119 -137,164 -124,72 -167,120 -203,224 -17,48 -19,86 -19,305 v 250 l -31,55 c -36,65 -189,192 -255,212 -59,17 -128,0 -251,-64 -217,-111 -220,-112 -290,-116 -38,-2 -68,0 -68,5 0,29 192,322 273,415 l 32,38 112,9 c 125,11 159,22 240,81 31,22 68,40 82,40 33,1 126,39 198,82 67,40 153,115 153,133 0,26 31,45 72,45 22,0 103,-14 180,-31 171,-38 213,-36 327,15 46,21 111,46 145,55 82,22 84,37 12,148 -31,47 -56,96 -56,108 0,21 26,51 65,74 29,17 403,7 525,-14 z m -850,-58 c 57,-29 90,-84 90,-149 0,-39 -4,-50 -31,-72 -26,-22 -40,-26 -93,-26 -74,0 -115,12 -173,52 -45,30 -93,101 -93,136 0,27 37,62 65,62 12,0 30,7 41,15 27,22 135,12 194,-18 z"
         fill="#3b82f6"
         opacity="1"
         id="path2" />
      <path
         d="m 2780,4152 c 0,-34 -41,-73 -109,-105 -116,-55 -244,-213 -227,-281 12,-47 146,-135 234,-152 28,-6 37,-1 73,34 l 40,41 -25,38 c -18,26 -26,51 -26,80 0,38 5,48 60,101 65,64 90,111 90,166 0,43 -33,82 -77,91 -28,6 -33,4 -33,-13 z"
         fill="#10b981"
         opacity="0.8"
         id="path3" />
    </g>
  </svg>
</g>
&gt;
  </g>
    <g
       transform="translate(105,110)"
       id="g8">
      <!-- Sombra de la lupa -->
      <circle
         cx="22"
         cy="22"
         r="20"
         fill="#000000"
         opacity="0.1"
         id="circle5" />
      <!-- Círculo de la lupa -->
      <circle
         cx="20"
         cy="20"
         r="18"
         fill="#ffffff"
         stroke="#3b82f6"
         stroke-width="4"
         id="circle6" />
      <!-- Mango de la lupa -->
      <line
         x1="33"
         y1="33"
         x2="48"
         y2="48"
         stroke="#3b82f6"
         stroke-width="5"
         stroke-linecap="round"
         id="line6" />
      <!-- Símbolo dentro de la lupa -->
      <line
         x1="14"
         y1="16"
         x2="26"
         y2="16"
         stroke="#10b981"
         stroke-width="2.5"
         stroke-linecap="round"
         id="line7" />
      <line
         x1="14"
         y1="24"
         x2="23"
         y2="24"
         stroke="#10b981"
         stroke-width="2.5"
         stroke-linecap="round"
         id="line8" />
    </g>
  </g>
</svg>
